<?xml version="1.0" encoding="UTF-8"?>
<svg id="a" data-name="Layer 1" xmlns="http://www.w3.org/2000/svg" viewBox="0 0 1013.7 216.33">
  <defs>
    <style>
      .b {
        fill: #0071bc;
      }

      .c {
        fill: #2985e2;
      }

      .d {
        fill: #333;
      }
    </style>
  </defs>
  <g>
    <g>
      <path class="b" d="M50.1,167.87c.46.43-2.19,2.03-.34,3.74,1.04.96,4.79,1.72,6.29,1.94,15.31,2.31,31,1.16,46.11-1.76,3.11,1.52,6.49,3.73,9.6,5.1.59.26,2.59.24,1.69,1.34-.06.08-1.47.2-1.95.39-17.85,6.81-48.2,10.27-65.59,1.12-9.52-5.01-3.3-10.46,4.18-11.88Z"/>
      <path class="b" d="M55.46,118.83c.08.52-.62.48-1,.61-5.85,1.89-12.94,2.98-18.34,6.01-7.23,4.06.16,5.6,4.52,6.23,11.98,1.72,28.55,1.06,40.77.42,14.52-.77,28.62-3.57,42.98-4.98.4-.04,1.29-.33,1.2.31-3.78,1.05-7,4.14-10.66,5.27-12.44,3.86-33.19,5.12-46.41,5.48-10.83.3-39.57.01-48.59-4.77-6.77-3.59,2.88-7.31,6.17-8.66,9.14-3.76,19.45-5.84,29.34-5.91Z"/>
      <path class="b" d="M45.44,143.89c.46.42-2.63,2.52-1.99,4.66.58,1.94,3.01,2.64,4.84,2.99,3.9.74,9.74,1.07,13.81,1.3,15.65.89,31.17-.8,46.53-3.61.88.07,4.39,2.95,5.66,3.68.45.26,3.84,1.29,3.11,2.08-10.51,2.54-21.21,4.88-32.04,5.73-11,.85-40.02,1.14-48.67-5.73-6.64-5.28,4.33-10.06,8.76-11.09Z"/>
      <g>
        <path class="b" d="M34.71,184.33c-5.16.04-10.78,1.2-15.52,3.28-7.19,3.15-7.06,5.37.41,7.72,18.62,5.86,47.24,5.03,66.82,4.38,15.61-.52,32.95-1.22,48.16-4.81,3.24-.76,13.68-3.13,12.83-7.79-.15-.82-1.09-1.19-1.02-2.05,3.89,1.39,5.07,4.62,1.6,7.51-10.1,8.39-43.51,12.09-56.9,12.89-24.71,1.48-52.41.44-76.9-3.63-4.12-.68-18.95-2.4-12.63-9.49,3.96-4.45,18.84-9.02,24.76-9.42,2.56-.18,6.43-.34,8.41,1.42Z"/>
        <path class="b" d="M28.98,210.45c-.18-.16-.28-.76.45-.63,6.79,1.18,13.66,1.61,20.49,2.42,28.08,1.28,57.52.9,85.01-5.54,8.61-2.02,18.06-4.5,24.69-10.56-1.76,9.07-14.56,12.94-22.46,14.94-15.71,3.97-32.78,4.74-48.95,5.09s-38.02.52-53.93-4.02c-.73-.21-5.09-1.5-5.29-1.69Z"/>
      </g>
      <path class="b" d="M125.26,159.63c-.13-.65.32-.89.74-1.23,1.82-1.47,5.28-2.92,7.46-4.35,6.9-4.49,17.01-12.44,17.22-21.47.16-6.9-6.48-12.81-13.18-12.94-2.29-.05-4.39,1.01-6.42,1.26-1.85.23-.18-1.2.5-1.65,4.23-2.87,13.09-2.79,17.76-1.05,7.72,2.87,12.05,11,9.47,18.97-4.01,12.39-22.06,19.42-33.55,22.46Z"/>
    </g>
    <g>
      <path class="c" d="M102,0c7.51,9.13,6.6,20.7,1.69,30.86s-12.33,16.75-20.28,23.74c-13.47,11.84-27.39,21.93-16.98,42,2.89,5.59,12.88,16.62,13.68,21.4.3,1.78-1.3-.34-1.39-.39-2.29-1.35-1.09-.68-2.66-2.37-9.48-10.21-27.45-23.92-24.41-39.78,2.88-15.02,30.67-29.95,41.04-42,8.35-9.72,12.17-20.69,8.6-33.46h.72Z"/>
      <path class="c" d="M127.05,44.74c-8.1,5.56-17.08,10.28-24.51,16.83-5.87,5.18-11.86,11.5-9.59,19.96,3.51,13.07,19.93,18.6,6.73,34.8-1.21,1.49-10.33,9.98-11.64,8.94,1.47-2.19,3.16-3.81,4.25-6.3,5.14-11.69-5.89-16.85-9.87-26.19-6.71-15.75,2.03-26.57,14.6-34.94,8.96-5.97,19.68-10.2,30.04-13.09Z"/>
    </g>
  </g>
  <g>
    <path class="d" d="M221.57,157.47c-7.63,0-14-1.35-19.12-4.06-5.12-2.71-8.98-6.9-11.59-12.57-2.61-5.67-4.06-13.02-4.37-22.05l23.03-3.46c.1,5.22.58,9.43,1.43,12.65.85,3.21,2.06,5.52,3.61,6.92,1.55,1.41,3.44,2.11,5.65,2.11,2.81,0,4.64-.95,5.49-2.86.85-1.9,1.28-3.91,1.28-6.02,0-5.02-1.2-9.26-3.61-12.72-2.41-3.46-5.67-6.95-9.78-10.46l-10.54-9.18c-4.62-3.91-8.51-8.36-11.67-13.32-3.16-4.97-4.74-11.11-4.74-18.44,0-10.34,3.06-18.24,9.18-23.71,6.12-5.47,14.45-8.2,24.99-8.2,6.52,0,11.77,1.11,15.73,3.31,3.96,2.21,6.97,5.1,9.03,8.66,2.06,3.56,3.46,7.33,4.22,11.29.75,3.97,1.18,7.75,1.28,11.37l-23.18,2.86c-.1-3.61-.33-6.75-.68-9.41-.35-2.66-1.08-4.72-2.18-6.17-1.11-1.45-2.81-2.18-5.12-2.18-2.51,0-4.34,1.05-5.49,3.16-1.16,2.11-1.73,4.22-1.73,6.32,0,4.52,1.08,8.2,3.24,11.06,2.16,2.86,4.99,5.85,8.51,8.96l10.09,8.88c5.32,4.52,9.81,9.63,13.47,15.36,3.66,5.72,5.49,12.8,5.49,21.23,0,5.72-1.3,10.91-3.91,15.58-2.61,4.67-6.3,8.36-11.06,11.06-4.77,2.71-10.41,4.06-16.94,4.06Z"/>
    <path class="d" d="M265.22,184.27v-115.62h24.54v6.32c2.91-2.61,6.02-4.57,9.33-5.87,3.31-1.3,6.47-1.96,9.48-1.96,3.31,0,6.15.65,8.51,1.96,2.36,1.31,4.29,3.14,5.8,5.49,1.51,2.36,2.61,5.1,3.31,8.2.7,3.11,1.05,6.42,1.05,9.94v37.49c0,5.42-.73,10.14-2.18,14.15-1.46,4.02-3.59,7.15-6.4,9.41-2.81,2.26-6.27,3.39-10.39,3.39-3.11,0-6.25-.73-9.41-2.18-3.16-1.45-6.2-3.44-9.11-5.95v35.23h-24.54ZM296.23,141.36c1.6,0,2.86-.45,3.76-1.35.9-.9,1.58-2.08,2.03-3.54.45-1.45.68-3.09.68-4.89v-40.65c0-1.71-.2-3.24-.6-4.59-.4-1.35-1.05-2.43-1.96-3.24-.9-.8-2.06-1.2-3.46-1.2-1.3,0-2.54.28-3.69.83-1.16.55-2.23,1.28-3.24,2.18v54.2c1.1.7,2.18,1.26,3.24,1.66,1.05.4,2.13.6,3.24.6Z"/>
    <path class="d" d="M369.7,157.17c-6.32,0-11.74-1.13-16.26-3.39s-7.98-5.57-10.39-9.94c-2.41-4.37-3.61-9.61-3.61-15.73v-31.92c0-6.22,1.2-11.49,3.61-15.81,2.41-4.31,5.89-7.6,10.46-9.86,4.57-2.26,9.96-3.39,16.18-3.39s11.77,1.11,16.03,3.31c4.26,2.21,7.48,5.47,9.64,9.79,2.16,4.32,3.24,9.64,3.24,15.96v17.46h-34.93v16.71c0,2.21.25,4.02.75,5.42.5,1.41,1.2,2.41,2.11,3.01.9.6,1.96.9,3.16.9s2.28-.28,3.24-.83c.95-.55,1.71-1.43,2.26-2.63.55-1.2.83-2.86.83-4.97v-9.18h22.58v8.43c0,8.83-2.56,15.48-7.68,19.95-5.12,4.47-12.19,6.7-21.23,6.7ZM363.67,102.22h12.34v-8.73c0-2.31-.28-4.11-.83-5.42-.55-1.3-1.31-2.21-2.26-2.71-.95-.5-2.08-.75-3.39-.75-1.2,0-2.23.3-3.09.9-.85.6-1.53,1.63-2.03,3.09-.5,1.46-.75,3.54-.75,6.25v7.38Z"/>
    <path class="d" d="M413.05,155.66V33.72h24.39v121.94h-24.39Z"/>
    <path class="d" d="M454.3,155.66V33.72h24.39v121.94h-24.39Z"/>
    <path class="d" d="M561.33,157.17c-6.32,0-11.72-1.15-16.18-3.46-4.47-2.31-7.9-5.62-10.31-9.94-2.41-4.31-3.61-9.53-3.61-15.66v-31.92c0-6.22,1.2-11.49,3.61-15.81,2.41-4.31,5.85-7.6,10.31-9.86,4.47-2.26,9.86-3.39,16.18-3.39s11.52.96,15.88,2.86c4.37,1.91,7.7,4.79,10.01,8.66,2.31,3.87,3.46,8.76,3.46,14.68v9.18h-23.64v-9.94c0-2.31-.23-4.09-.68-5.34-.45-1.25-1.1-2.13-1.96-2.63-.85-.5-1.88-.75-3.09-.75s-2.21.33-3.01.98c-.81.65-1.41,1.71-1.81,3.16-.4,1.46-.6,3.49-.6,6.1v36.13c0,3.91.47,6.57,1.43,7.98.95,1.41,2.33,2.11,4.14,2.11,1.3,0,2.36-.28,3.16-.83.8-.55,1.4-1.45,1.81-2.71.4-1.25.6-2.94.6-5.04v-11.59h23.64v10.54c0,5.82-1.18,10.71-3.54,14.68-2.36,3.97-5.72,6.93-10.09,8.88-4.37,1.96-9.61,2.94-15.73,2.94Z"/>
    <path class="d" d="M603.63,155.66V33.72h24.39v42.6c3.21-3.21,6.57-5.54,10.09-7,3.51-1.45,7.28-2.18,11.29-2.18,3.51,0,6.45.88,8.81,2.64,2.36,1.76,4.14,4.17,5.34,7.23,1.2,3.06,1.81,6.55,1.81,10.46v68.2h-24.39v-64.73c0-2.11-.35-3.71-1.05-4.82-.7-1.1-2.01-1.66-3.91-1.66-1.01,0-2.21.28-3.61.83-1.41.55-2.86,1.33-4.37,2.33v68.05h-24.39Z"/>
    <path class="d" d="M708.56,157.17c-6.32,0-11.74-1.13-16.26-3.39-4.52-2.26-7.98-5.57-10.39-9.94-2.41-4.37-3.61-9.61-3.61-15.73v-31.92c0-6.22,1.2-11.49,3.61-15.81,2.41-4.31,5.89-7.6,10.46-9.86,4.57-2.26,9.96-3.39,16.18-3.39s11.77,1.11,16.03,3.31c4.26,2.21,7.48,5.47,9.63,9.79,2.16,4.32,3.24,9.64,3.24,15.96v17.46h-34.93v16.71c0,2.21.25,4.02.75,5.42.5,1.41,1.2,2.41,2.11,3.01.9.6,1.96.9,3.16.9s2.28-.28,3.24-.83c.95-.55,1.71-1.43,2.26-2.63.55-1.2.83-2.86.83-4.97v-9.18h22.58v8.43c0,8.83-2.56,15.48-7.68,19.95-5.12,4.47-12.19,6.7-21.23,6.7ZM702.54,102.22h12.34v-8.73c0-2.31-.28-4.11-.83-5.42-.55-1.3-1.3-2.21-2.26-2.71-.95-.5-2.08-.75-3.39-.75-1.2,0-2.23.3-3.09.9-.85.6-1.53,1.63-2.03,3.09-.5,1.46-.75,3.54-.75,6.25v7.38Z"/>
    <path class="d" d="M779.16,157.17c-6.32,0-11.72-1.15-16.18-3.46-4.47-2.31-7.9-5.62-10.31-9.94-2.41-4.31-3.61-9.53-3.61-15.66v-31.92c0-6.22,1.2-11.49,3.61-15.81,2.41-4.31,5.85-7.6,10.31-9.86,4.47-2.26,9.86-3.39,16.18-3.39s11.52.96,15.88,2.86c4.37,1.91,7.7,4.79,10.01,8.66,2.31,3.87,3.46,8.76,3.46,14.68v9.18h-23.64v-9.94c0-2.31-.23-4.09-.68-5.34-.45-1.25-1.1-2.13-1.96-2.63-.85-.5-1.88-.75-3.09-.75s-2.21.33-3.01.98c-.81.65-1.41,1.71-1.81,3.16-.4,1.46-.6,3.49-.6,6.1v36.13c0,3.91.47,6.57,1.43,7.98.95,1.41,2.33,2.11,4.14,2.11,1.3,0,2.36-.28,3.16-.83.8-.55,1.4-1.45,1.81-2.71.4-1.25.6-2.94.6-5.04v-11.59h23.64v10.54c0,5.82-1.18,10.71-3.54,14.68-2.36,3.97-5.72,6.93-10.09,8.88-4.37,1.96-9.61,2.94-15.73,2.94Z"/>
    <path class="d" d="M821.31,155.66V33.72h23.63v67.59l17.76-32.67h27.25l-20.93,35.68,20.78,51.34h-26.49l-12.95-41.4-5.42,8.28v33.12h-23.63Z"/>
    <path class="d" d="M924.13,157.17c-6.32,0-11.74-1.13-16.26-3.39-4.52-2.26-7.98-5.57-10.39-9.94-2.41-4.37-3.61-9.61-3.61-15.73v-31.92c0-6.22,1.2-11.49,3.61-15.81,2.41-4.31,5.89-7.6,10.46-9.86,4.57-2.26,9.96-3.39,16.18-3.39s11.77,1.11,16.03,3.31c4.26,2.21,7.48,5.47,9.63,9.79,2.16,4.32,3.24,9.64,3.24,15.96v17.46h-34.93v16.71c0,2.21.25,4.02.75,5.42.5,1.41,1.2,2.41,2.11,3.01.9.6,1.96.9,3.16.9s2.28-.28,3.24-.83c.95-.55,1.71-1.43,2.26-2.63.55-1.2.83-2.86.83-4.97v-9.18h22.58v8.43c0,8.83-2.56,15.48-7.68,19.95-5.12,4.47-12.19,6.7-21.23,6.7ZM918.11,102.22h12.34v-8.73c0-2.31-.28-4.11-.83-5.42-.55-1.3-1.3-2.21-2.26-2.71-.95-.5-2.08-.75-3.39-.75-1.2,0-2.23.3-3.09.9-.85.6-1.53,1.63-2.03,3.09-.5,1.46-.75,3.54-.75,6.25v7.38Z"/>
    <path class="d" d="M966.73,155.66v-87.01h24.54v14.45c2.81-5.02,5.62-8.86,8.43-11.52,2.81-2.66,6.22-3.99,10.24-3.99.8,0,1.51.03,2.11.07.6.05,1.15.18,1.66.38v24.39c-1.11-.5-2.33-.93-3.69-1.28-1.36-.35-2.79-.53-4.29-.53-2.81,0-5.42.75-7.83,2.26-2.41,1.51-4.62,3.56-6.62,6.17v56.6h-24.54Z"/>
  </g>
</svg>